PathFileType	4	(X/Y/Z)	s02c0203.trc
DataRate	CameraRate	NumFrames	NumMarkers	Units	OrigDataRate	OrigDataStartFrame	OrigNumFrames
200	200	4	51	mm	200	1250	2000
Frame#	Time	racr			lacr			c7			jug			rlel			rdr			llel			ldr			s2			lic			ric			lasi			rasi			rpsi			lpsi			rgt			lgt			rth1			rth2			rth3			rth4			rlfc			rmfc			rsh1			rsh2			rsh3			rsh4			rlmal			rmmal			rcal			rtoe			rmt5			rmt1			lth1			lth2			lth4			lth3			llfc			lmfc			lsh1			lsh2			lsh3			lsh4			llmal			lmmal			lcal			ltoe			lmt5			SBIKE			LBIKE			RBIKE			
		X1	Y1	Z1	X2	Y2	Z2	X3	Y3	Z3	X4	Y4	Z4	X5	Y5	Z5	X6	Y6	Z6	X7	Y7	Z7	X8	Y8	Z8	X9	Y9	Z9	X10	Y10	Z10	X11	Y11	Z11	X12	Y12	Z12	X13	Y13	Z13	X14	Y14	Z14	X15	Y15	Z15	X16	Y16	Z16	X17	Y17	Z17	X18	Y18	Z18	X19	Y19	Z19	X20	Y20	Z20	X21	Y21	Z21	X22	Y22	Z22	X23	Y23	Z23	X24	Y24	Z24	X25	Y25	Z25	X26	Y26	Z26	X27	Y27	Z27	X28	Y28	Z28	X29	Y29	Z29	X30	Y30	Z30	X31	Y31	Z31	X32	Y32	Z32	X33	Y33	Z33	X34	Y34	Z34	X35	Y35	Z35	X36	Y36	Z36	X37	Y37	Z37	X38	Y38	Z38	X39	Y39	Z39	X40	Y40	Z40	X41	Y41	Z41	X42	Y42	Z42	X43	Y43	Z43	X44	Y44	Z44	X45	Y45	Z45	X46	Y46	Z46	X47	Y47	Z47	X48	Y48	Z48	X49	Y49	Z49	X50	Y50	Z50	X51	Y51	Z51	
1250	6.2500	518.838344	1215.370435	-116.663677	578.843761	1174.528541	-434.867353	538.842330	1246.275991	-276.564263	460.435339	1127.365644	-274.031995	531.658106	980.048513	-4.249907	692.472299	888.385294	-106.082329	528.904697	992.075526	-641.961657	684.282221	879.986872	-541.365518	12.732551	1117.974158	-357.972077	144.262757	1095.537721	-490.484859	119.766889	1119.331447	-197.670939	181.921415	1060.313567	-457.072351	173.631892	1103.942600	-229.871733	25.289230	1151.570354	-323.125207	40.026933	1152.942323	-406.553521	105.070314	1041.674805	-160.794934	100.225258	1000.911966	-517.591430	193.559727	1003.146421	-148.240136	276.419703	972.940995	-147.419743	333.286227	915.544504	-119.030648	294.930036	994.699231	-172.864173	430.403555	802.442199	-145.738398	430.485796	782.121569	-254.329047	423.515595	690.082626	-126.649552	425.406029	601.735244	-144.021105	387.852580	524.942883	-141.376989	442.086354	600.821018	-180.588163	351.343179	409.973632	-148.120856	358.569809	432.445555	-228.045956	278.482959	359.370129	-190.164269	564.982610	358.687998	-192.467512	457.610044	338.354715	-130.315187	482.260154	358.900938	-237.035442	220.810518	924.681618	-521.188966	297.712260	884.261617	-515.926271	318.420616	907.545830	-496.704006	343.900198	807.937125	-516.549488	404.222310	728.673712	-493.573392	399.655459	698.406915	-388.829582	344.311340	642.775255	-510.967429	298.188724	571.775545	-493.577975	219.073020	528.209872	-497.739055	312.773385	560.856890	-456.502062	132.011820	468.154648	-484.781254	145.000885	454.339160	-408.215083	52.988123	475.289830	-443.773870	229.193221	248.609420	-439.603472	143.604876	311.675727	-503.976386	-129.178502	869.211235	-314.666241	32.513615	82.403669	-515.215465	32.447135	82.613724	-115.349026	
1251	6.2550	519.388968	1214.798224	-117.069543	579.001238	1173.949515	-436.112266	539.091284	1245.822807	-277.556644	460.929853	1126.754581	-274.855123	531.448275	979.434057	-4.728279	692.548924	888.125933	-106.228179	528.419333	991.163216	-642.360913	684.368206	879.575971	-541.311523	13.310128	1116.427804	-357.777302	144.028989	1094.676000	-490.170734	120.269317	1118.439405	-197.204106	181.761337	1059.633393	-456.595594	174.366175	1102.961695	-229.197899	26.052179	1149.377592	-322.364530	39.625655	1151.828888	-404.905846	105.184958	1040.198249	-160.285869	100.835559	1000.533515	-517.484526	193.430397	1000.018156	-147.997889	275.576162	968.054804	-147.374943	331.183381	909.197219	-119.260278	294.625133	989.582022	-172.588992	426.277891	794.682254	-146.254079	425.800986	773.793055	-254.745002	420.932307	682.162620	-127.256057	424.050653	593.546876	-144.014894	387.834498	516.287661	-141.020859	440.291047	593.024838	-180.759801	352.682449	400.300653	-147.386955	361.423640	423.550845	-229.351631	279.472213	350.479723	-189.548101	565.996270	346.492956	-192.821499	458.552505	327.415197	-130.315683	483.123359	347.651493	-237.419846	222.308256	926.521187	-520.930893	300.092131	887.955488	-515.367323	319.989601	911.550002	-495.668836	348.096391	812.863897	-516.198187	409.916765	734.590888	-493.454297	405.152776	704.362649	-388.251880	349.231294	649.516918	-510.574997	301.835223	579.320697	-493.047658	222.047037	537.078347	-497.373017	316.230114	568.206845	-455.964750	133.913990	478.906803	-484.500848	146.776670	464.892384	-407.968714	54.854024	486.861791	-443.654650	228.724944	258.422424	-439.601373	143.896629	322.490773	-503.907225	-129.176027	869.224578	-314.669235	32.506062	82.399818	-515.209322	32.456973	82.602700	-115.358830	
1252	6.2600	520.091477	1214.351393	-117.584685	579.126570	1173.459712	-437.676191	539.420872	1245.522672	-278.759007	461.439892	1126.340873	-275.857262	531.458687	978.736832	-5.183662	692.598226	887.829486	-106.299585	528.591474	990.168462	-643.084052	684.405110	879.043172	-541.362219	13.532045	1115.170191	-356.988979	143.764015	1093.931953	-489.666230	120.877357	1117.387106	-196.559797	181.614499	1059.118220	-456.012616	175.010086	1102.185422	-228.470896	26.741526	1146.940386	-321.293954	40.010166	1150.037604	-404.067205	105.424835	1038.563572	-159.750144	101.395819	1000.223365	-517.139046	193.412593	996.827448	-147.668794	275.214601	963.211395	-147.100332	329.196633	902.785082	-119.406745	294.306656	984.601560	-171.849584	422.242955	786.897061	-146.020664	421.198014	765.334277	-255.377181	417.714221	673.910831	-127.679395	422.346750	585.429794	-144.128258	387.431116	507.552271	-140.557347	438.120350	585.442492	-180.411628	353.367056	390.766531	-146.561459	361.725676	414.061504	-228.496877	279.872709	341.847847	-188.640122	566.437471	334.356932	-192.993049	458.913751	316.656654	-130.216172	483.419470	336.633357	-237.047738	223.579077	928.607219	-520.648610	302.319760	891.894640	-514.985580	321.506361	915.803953	-494.868910	352.135084	817.962170	-516.070384	415.224232	741.218254	-492.868390	411.301359	710.936191	-387.458485	354.104694	656.521994	-510.192578	305.577145	587.166202	-492.589117	225.150417	546.083969	-496.959217	319.721975	575.892561	-455.498009	136.046839	489.557446	-484.186135	148.734762	475.418936	-407.726221	57.160686	498.206456	-443.249779	228.998449	268.426924	-439.682897	144.710662	333.257798	-503.820349	-129.167799	869.166616	-314.626749	32.503546	82.404418	-515.217330	32.444374	82.599187	-115.355420	
1253	6.2650	520.937590	1213.984072	-118.173897	579.308229	1172.985380	-439.450706	539.855610	1245.378541	-280.199865	462.032708	1126.098252	-277.104793	531.463752	978.284073	-5.572810	692.558545	887.587062	-106.298519	528.904602	989.009215	-643.839288	684.361628	878.443520	-541.399505	13.605131	1113.778054	-355.819788	143.283739	1093.383589	-489.097497	121.477266	1116.478167	-195.750182	181.405721	1058.749885	-455.383676	175.786811	1101.205995	-227.652378	27.452630	1144.686678	-320.092840	40.811206	1148.624575	-403.503900	105.684090	1036.786896	-159.123291	101.870616	1000.155313	-516.646365	193.450008	993.440315	-147.333531	274.883574	958.002629	-147.302221	327.081009	896.202195	-119.430740	294.090014	979.199208	-171.270920	417.610759	778.726945	-146.506493	416.184710	757.035488	-255.459496	414.080701	665.579924	-128.009650	421.573023	577.525802	-143.580410	386.217980	498.902657	-140.122740	435.382685	577.798575	-180.164940	353.488751	381.499082	-145.647322	361.517835	404.679932	-227.549352	279.689407	333.404665	-187.493359	566.116666	322.094883	-193.278266	458.614806	305.800100	-130.135041	482.908913	325.646846	-236.896910	224.680089	930.866131	-520.330790	304.298725	896.062719	-514.717177	322.817257	920.333237	-494.187689	355.845604	823.326641	-515.883792	420.402409	747.997669	-492.694309	417.707826	718.007703	-386.579763	358.874783	663.837890	-509.790404	309.318552	595.234521	-492.141684	228.333681	555.261319	-496.516902	323.260784	583.754190	-454.926758	138.389885	500.279730	-483.845337	150.641696	485.743561	-407.550247	59.329033	509.432666	-443.053416	230.079682	278.829359	-439.786247	146.124035	344.154630	-503.787092	-129.217404	869.206603	-314.585941	32.500968	82.390227	-515.244115	32.455349	82.578935	-115.354825	
